<svg xmlns="http://www.w3.org/2000/svg" width="132" height="152" viewBox="0 0 132 152">
  <g id="Pointer" transform="translate(0 152) rotate(-90)" fill="#ffbd35">
    <path d="M 132.9737243652344 129.5 L 19.02630043029785 129.5 C 15.9555196762085 129.5 13.20460033416748 127.9128646850586 11.6676197052002 125.2544021606445 C 10.13064002990723 122.5959396362305 10.12777996063232 119.4200057983398 11.65999984741211 116.7587814331055 L 68.63369750976562 17.80446243286133 C 70.16908264160156 15.13772296905518 72.92283630371094 13.54566287994385 76 13.54566287994385 C 79.07714080810547 13.54566287994385 81.83090209960938 15.13772296905518 83.36627960205078 17.804443359375 L 140.3399963378906 116.7588043212891 C 141.8722229003906 119.4200210571289 141.869384765625 122.5959396362305 140.3323822021484 125.2544021606445 C 138.7953948974609 127.9128646850586 136.0444946289062 129.5 132.9737243652344 129.5 Z" stroke="none"/>
    <path d="M 75.99997711181641 16.04564666748047 C 74.96197509765625 16.04564666748047 73.94615936279297 16.30490112304688 73.06233978271484 16.79540252685547 C 72.12338256835938 17.31646728515625 71.36231994628906 18.07567596435547 70.80024719238281 19.0518798828125 L 13.8265380859375 118.006217956543 C 12.26759338378906 120.7138977050781 13.31097412109375 123.1020126342773 13.83192443847656 124.0031051635742 C 14.35289001464844 124.9041748046875 15.90188598632812 126.9999923706055 19.02629089355469 126.9999923706055 L 132.9737091064453 126.9999923706055 C 136.0981140136719 126.9999923706055 137.6471099853516 124.9041748046875 138.1680603027344 124.0030822753906 C 138.6890258789062 123.1020126342773 139.7324066162109 120.7138748168945 138.1734619140625 118.006217956543 L 81.19972991943359 19.05190277099609 C 80.63765716552734 18.07567596435547 79.87659454345703 17.31646728515625 78.93761444091797 16.79540252685547 C 78.05379486083984 16.30490112304688 77.03797912597656 16.04564666748047 75.99997711181641 16.04564666748047 M 75.99999237060547 11.045654296875 C 79.70867156982422 11.045654296875 83.41735076904297 12.88278198242188 85.53284454345703 16.55706024169922 L 142.5065612792969 115.5113983154297 C 146.7287750244141 122.8447189331055 141.4356536865234 131.9999847412109 132.9737091064453 131.9999847412109 L 19.02629089355469 131.9999847412109 C 10.56431579589844 131.9999847412109 5.271224975585938 122.8447189331055 9.493438720703125 115.5113983154297 L 66.46713256835938 16.55706024169922 C 68.58262634277344 12.88278198242188 72.29130554199219 11.045654296875 75.99999237060547 11.045654296875 Z" stroke="none" fill="#473a43"/>
  </g>
</svg>
