<svg xmlns="http://www.w3.org/2000/svg" xmlns:xlink="http://www.w3.org/1999/xlink" width="726.296" height="726.105" viewBox="0 0 726.296 726.105">
  <defs>
    <clipPath id="clip-path">
      <rect id="Rectangle_12" data-name="Rectangle 12" width="726.296" height="726.105" fill="none"/>
    </clipPath>
  </defs>
  <g id="Wheel" transform="translate(-597 -177)">
    <g id="Group_7" data-name="Group 7" transform="translate(597 177)">
      <g id="Group_6" data-name="Group 6" clip-path="url(#clip-path)">
        <path id="Path_7" data-name="Path 7" d="M352.832,360.316,12.53,249.745C61.383,99.391,194.739,2.5,352.832,2.5Z" transform="translate(10.316 2.059)" fill="#fbb277"/>
        <path id="Path_8" data-name="Path 8" d="M355.332,363.757,9.38,251.35l.773-2.378a370.5,370.5,0,0,1,51.9-102.754A349.8,349.8,0,0,1,239.068,17.61,370.5,370.5,0,0,1,352.832,0h2.5ZM15.688,248.142,350.332,356.875V5.009A365.141,365.141,0,0,0,240.6,22.369,344.8,344.8,0,0,0,66.107,149.146,365.14,365.14,0,0,0,15.688,248.142Z" transform="translate(10.316 2.059)" fill="#473a43"/>
        <path id="Path_9" data-name="Path 9" d="M361.09,248.676,150.771,538.154C22.871,445.23-28.066,288.46,20.787,138.1Z" transform="translate(2.059 113.7)" fill="#ffd287"/>
        <path id="Path_10" data-name="Path 10" d="M19.182,134.954l2.378.773L365.135,247.361l-2.022,2.784-211.788,291.5-2.023-1.469a370.5,370.5,0,0,1-81.687-81.114A349.8,349.8,0,0,1,0,250.969,370.5,370.5,0,0,1,18.41,137.331ZM357.045,249.99,22.4,141.257A365.144,365.144,0,0,0,5,250.982,344.8,344.8,0,0,0,71.652,456.113a365.134,365.134,0,0,0,78.571,78.542Z" transform="translate(2.059 113.7)" fill="#473a43"/>
        <path id="Path_11" data-name="Path 11" d="M294.139,198.748,504.458,488.226c-127.9,92.926-292.736,92.926-420.637,0Z" transform="translate(69.009 163.627)" fill="#f4c2a3"/>
        <path id="Path_12" data-name="Path 12" d="M294.139,194.495l2.023,2.784,211.788,291.5-2.023,1.469A370.5,370.5,0,0,1,403.54,542.873a349.8,349.8,0,0,1-218.8,0A370.5,370.5,0,0,1,82.352,490.249l-2.023-1.469,1.469-2.023ZM500.961,487.667,294.139,203,87.318,487.667A365.141,365.141,0,0,0,186.3,538.121a344.8,344.8,0,0,0,215.686,0A365.141,365.141,0,0,0,500.961,487.667Z" transform="translate(69.009 163.627)" fill="#473a43"/>
        <path id="Path_13" data-name="Path 13" d="M199.172,248.676,539.474,138.1C588.328,288.46,537.39,445.23,409.49,538.154Z" transform="translate(163.976 113.7)" fill="#f1e1d9"/>
        <path id="Path_14" data-name="Path 14" d="M541.079,134.954l.773,2.378A370.507,370.507,0,0,1,560.26,250.969a349.8,349.8,0,0,1-67.613,208.093,370.5,370.5,0,0,1-81.687,81.114l-2.023,1.469-1.469-2.023L195.127,247.361Zm-131.041,399.7a365.134,365.134,0,0,0,78.571-78.542A344.8,344.8,0,0,0,555.26,250.982a365.144,365.144,0,0,0-17.4-109.725L203.217,249.99Z" transform="translate(163.976 113.7)" fill="#473a43"/>
        <path id="Path_15" data-name="Path 15" d="M199.172,360.316V2.5c158.094,0,291.449,96.89,340.3,247.244Z" transform="translate(163.976 2.059)" fill="#ffbd35"/>
        <path id="Path_16" data-name="Path 16" d="M196.672,363.757V0h2.5A370.5,370.5,0,0,1,312.936,17.61,349.8,349.8,0,0,1,489.95,146.218a370.5,370.5,0,0,1,51.9,102.754l.773,2.378Zm5-358.748V356.875L536.316,248.142a365.142,365.142,0,0,0-50.419-99A344.8,344.8,0,0,0,311.4,22.369,365.142,365.142,0,0,0,201.672,5.009Z" transform="translate(163.976 2.059)" fill="#473a43"/>
        <path id="Path_17" data-name="Path 17" d="M366.526,248.83A116.082,116.082,0,1,1,250.443,132.747,116.084,116.084,0,0,1,366.526,248.83" transform="translate(112.705 111.17)" fill="#ffbd35"/>
        <path id="Path_18" data-name="Path 18" d="M250.443,367.414a119.443,119.443,0,0,1-23.9-2.409,117.944,117.944,0,0,1-42.406-17.845,118.922,118.922,0,0,1-42.96-52.171,118.006,118.006,0,0,1-6.911-22.263,119.716,119.716,0,0,1,0-47.792,117.949,117.949,0,0,1,17.844-42.407,118.921,118.921,0,0,1,52.17-42.961,118.005,118.005,0,0,1,22.262-6.911,119.712,119.712,0,0,1,47.792,0A117.947,117.947,0,0,1,316.745,150.5a118.924,118.924,0,0,1,42.961,52.171,118.007,118.007,0,0,1,6.911,22.263,119.712,119.712,0,0,1,0,47.792,117.946,117.946,0,0,1-17.845,42.407A118.923,118.923,0,0,1,296.6,358.094,118,118,0,0,1,274.338,365,119.445,119.445,0,0,1,250.443,367.414Zm0-232.167a114.432,114.432,0,0,0-22.893,2.308,112.945,112.945,0,0,0-40.61,17.089,113.922,113.922,0,0,0-41.154,49.976,113,113,0,0,0-6.617,21.317,114.716,114.716,0,0,0,0,45.787,112.949,112.949,0,0,0,17.089,40.61,113.92,113.92,0,0,0,49.975,41.155,112.99,112.99,0,0,0,21.317,6.617,114.712,114.712,0,0,0,45.787,0,112.948,112.948,0,0,0,40.61-17.089A113.925,113.925,0,0,0,355.1,293.041a112.991,112.991,0,0,0,6.617-21.317,114.712,114.712,0,0,0,0-45.787,112.947,112.947,0,0,0-17.089-40.61,113.924,113.924,0,0,0-49.976-41.155,112.993,112.993,0,0,0-21.317-6.617A114.434,114.434,0,0,0,250.443,135.247Z" transform="translate(110.618 109.289)" fill="#473a43"/>
      </g>
    </g>
    <text id="Flip_Cup" data-name="Flip Cup" transform="translate(947 686.318) rotate(90)" fill="#473a43" font-size="35" font-family="Quicksand-Bold, Quicksand" font-weight="700"><tspan x="0" y="0">Flip Cup</tspan></text>
    <text id="Power_Hour" data-name="Power Hour" transform="translate(823.955 580.275) rotate(162)" fill="#473a43" font-size="34" font-family="Quicksand-Bold, Quicksand" font-weight="700"><tspan x="0" y="0">Power Hour</tspan></text>
    <text id="SPIN_" data-name="SPIN!" transform="translate(887 556)" fill="#473a43" font-size="62" font-family="'Baloo Da \32 '" font-weight="700"><tspan x="0" y="0">SPIN!</tspan></text>
    <text id="Beer_Pong" data-name="Beer Pong" transform="matrix(0.966, 0.259, -0.259, 0.966, 1107.481, 605.523)" fill="#473a43" font-size="35" font-family="Quicksand-Bold, Quicksand" font-weight="700"><tspan x="0" y="0">Beer Pong</tspan></text>
    <text id="Beer_Ball" data-name="Beer Ball" transform="translate(1068.297 418.567) rotate(-52)" fill="#473a43" font-size="35" font-family="Quicksand-Bold, Quicksand" font-weight="700"><tspan x="0" y="0">Beer Ball</tspan></text>
    <text id="Kings_Cup" data-name="Kings Cup" transform="translate(877.937 399.359) rotate(-135)" fill="#473a43" font-size="35" font-family="Quicksand-Bold, Quicksand" font-weight="700"><tspan x="0" y="0">Kings Cup</tspan></text>
  </g>
</svg>
